<svg height="512" viewBox="0 0 64 64" width="512" xmlns="http://www.w3.org/2000/svg"><g id="City-Taxi-Town-Building-Transportation"><path d="m5 13h30v48h-30z" fill="#5aaae7"/><g fill="#3d9ae2"><path d="m57 19v6h-2-20v-6z"/><path d="m37 7v6h-2-30-2v-6z"/><path d="m27 47v4h-2-10-2v-4z"/></g><path d="m15 51h10v10h-10z" fill="#e6e7e8"/><path d="m35 25h20v36h-20z" fill="#3d9ae2"/><path d="m38 57v3a1 1 0 0 1 -1 1h-4a1 1 0 0 1 -1-1v-5a2.006 2.006 0 0 0 2 2z" fill="#57565c"/><circle cx="59" cy="47" fill="#ebbf00" r="2"/><circle cx="33" cy="47" fill="#ebbf00" r="2"/><path d="m60 55v5a1 1 0 0 1 -1 1h-4a1 1 0 0 1 -1-1v-3h4a2.006 2.006 0 0 0 2-2z" fill="#57565c"/><rect fill="#ffd422" height="8" rx="2" width="28" x="32" y="49"/><path d="m34 57h4v2h-4a2.006 2.006 0 0 1 -2-2v-2a2.006 2.006 0 0 0 2 2z" fill="#3e3d42"/><path d="m60 55v2a2.006 2.006 0 0 1 -2 2h-4v-2h4a2.006 2.006 0 0 0 2-2z" fill="#3e3d42"/><path d="m54.19 39.76.81 3.24h-18l.81-3.24a1 1 0 0 1 .97-.76h14.44a1 1 0 0 1 .97.76z" fill="#ffd422"/><path d="m42 35h8v4h-8z" fill="#ebbf00"/><path d="m58 49h-24l3-6h18z" fill="#e6e7e8"/><path d="m58 49h-10l6-6h1z" fill="#e0e0e2"/><path d="m5 13h30v2h-30z" fill="#1e81ce"/><path d="m35 25h20v2h-20z" fill="#1e81ce"/><path d="m15 51h10v2h-10z" fill="#d8d7da"/><path d="m43 52h6v2h-6z"/><path d="m62 47a3.009 3.009 0 0 0 -3-3 2.949 2.949 0 0 0 -1.99.78l-1.07-2.13-.78-3.14a1.992 1.992 0 0 0 -1.94-1.51h-2.22v-3a1 1 0 0 0 -1-1h-8a1 1 0 0 0 -1 1v3h-2.22a1.992 1.992 0 0 0 -1.94 1.51l-.78 3.14-1.07 2.13a2.949 2.949 0 0 0 -1.99-.78 3 3 0 0 0 -1.6 5.53 2.942 2.942 0 0 0 -.4 1.47v9a2.006 2.006 0 0 0 2 2h4a2.006 2.006 0 0 0 2-2v-2h14v2a2.006 2.006 0 0 0 2 2h4a2.006 2.006 0 0 0 2-2v-9a2.942 2.942 0 0 0 -.4-1.47 2.983 2.983 0 0 0 1.4-2.53zm-19-11h6v2h-6zm-4.22 4h14.44l.5 2h-15.44zm-1.16 4h16.76l2 4h-20.76zm-5.62 3a.992.992 0 0 1 1.97-.17l-.53 1.05a.933.933 0 0 1 -.44.12 1 1 0 0 1 -1-1zm5 13h-4v-2.18a3 3 0 0 0 1 .18h3zm22 0h-4v-2h3a3 3 0 0 0 1-.18zm0-5a1 1 0 0 1 -1 1h-24a1 1 0 0 1 -1-1v-4a1 1 0 0 1 1-1h24a1 1 0 0 1 1 1zm0-7a.933.933 0 0 1 -.44-.12l-.53-1.05a.993.993 0 1 1 .97 1.17z"/><circle cx="55" cy="53" r="2"/><circle cx="37" cy="53" r="2"/><path d="m41 60h10v2h-10z"/><path d="m9 16h2v2h-2z"/><path d="m13 16h2v2h-2z"/><path d="m17 16h2v2h-2z"/><path d="m21 16h2v2h-2z"/><path d="m25 16h2v2h-2z"/><path d="m29 16h2v2h-2z"/><path d="m9 20h2v2h-2z"/><path d="m13 20h2v2h-2z"/><path d="m17 20h2v2h-2z"/><path d="m21 20h2v2h-2z"/><path d="m25 20h2v2h-2z"/><path d="m29 20h2v2h-2z"/><path d="m9 24h2v2h-2z"/><path d="m13 24h2v2h-2z"/><path d="m17 24h2v2h-2z"/><path d="m21 24h2v2h-2z"/><path d="m25 24h2v2h-2z"/><path d="m29 24h2v2h-2z"/><path d="m9 28h2v2h-2z"/><path d="m13 28h2v2h-2z"/><path d="m17 28h2v2h-2z"/><path d="m21 28h2v2h-2z"/><path d="m25 28h2v2h-2z"/><path d="m29 28h2v2h-2z"/><path d="m38 28h2v2h-2z"/><path d="m42 28h2v2h-2z"/><path d="m46 28h2v2h-2z"/><path d="m50 28h2v2h-2z"/><path d="m9 32h2v2h-2z"/><path d="m13 32h2v2h-2z"/><path d="m17 32h2v2h-2z"/><path d="m21 32h2v2h-2z"/><path d="m25 32h2v2h-2z"/><path d="m29 32h2v2h-2z"/><path d="m9 36h2v2h-2z"/><path d="m13 36h2v2h-2z"/><path d="m17 36h2v2h-2z"/><path d="m21 36h2v2h-2z"/><path d="m25 36h2v2h-2z"/><path d="m29 36h2v2h-2z"/><path d="m9 40h2v2h-2z"/><path d="m13 40h2v2h-2z"/><path d="m17 40h2v2h-2z"/><path d="m21 40h2v2h-2z"/><path d="m25 40h2v2h-2z"/><path d="m29 40h2v2h-2z"/><path d="m57 18h-21v-4h1a1 1 0 0 0 1-1v-6a1 1 0 0 0 -1-1h-34a1 1 0 0 0 -1 1v6a1 1 0 0 0 1 1h1v47a1 1 0 0 0 1 1h24v-2h-3v-8h1a1 1 0 0 0 1-1v-4a1 1 0 0 0 -1-1h-14a1 1 0 0 0 -1 1v4a1 1 0 0 0 1 1h1v8h-8v-46h28v22h2v-10h18v10h2v-10h1a1 1 0 0 0 1-1v-6a1 1 0 0 0 -1-1zm-33 42h-8v-8h8zm-10-12h12v2h-12zm-10-36v-4h32v4zm52 12h-20v-4h20z"/></g></svg>