<svg id="Capa_1" enable-background="new 0 0 512 512" height="512" viewBox="0 0 512 512" width="512" xmlns="http://www.w3.org/2000/svg"><path d="m280.169 359.111-53.033-53.033 280.467-280.468c5.863-5.863 5.863-15.351 0-21.213-5.863-5.863-15.351-5.863-21.213 0l-280.468 280.467-53.033-53.033c-29.241-29.241-76.825-29.241-106.066 0l-42.426 42.427c-5.863 5.863-5.863 15.351 0 21.213 5.863 5.863 15.351 5.863 21.213 0l31.82-31.82 21.213 21.213-31.82 31.82c-5.863 5.863-5.863 15.351 0 21.213s15.351 5.863 21.213 0l31.82-31.82 21.213 21.213-31.82 31.82c-5.863 5.863-5.863 15.351 0 21.213 5.863 5.863 15.351 5.863 21.213 0l31.82-31.82 21.213 21.213-31.82 31.82c-5.863 5.863-5.863 15.351 0 21.213 5.863 5.863 15.351 5.863 21.213 0l31.82-31.82 21.213 21.213-31.82 31.82c-5.863 5.863-5.863 15.351 0 21.213 5.863 5.863 15.351 5.863 21.213 0l31.82-31.82 21.213 21.213-31.82 31.82c-5.863 5.863-5.863 15.351 0 21.213 5.863 5.863 15.351 5.863 21.213 0l42.426-42.426c29.243-29.239 29.243-76.824.003-106.064z"/></svg>