<svg id="Layer_5" enable-background="new 0 0 64 64" height="512" viewBox="0 0 64 64" width="512" xmlns="http://www.w3.org/2000/svg"><g><g><g><path d="m32 2c3.31 0 6 2.69 6 6s-2.69 6-6 6-6-2.69-6-6 2.69-6 6-6zm2 6c0-1.1-.9-2-2-2s-2 .9-2 2 .9 2 2 2 2-.9 2-2z" fill="#fcd770"/></g><g><path d="m38 60c.35.35.73.66 1.13.92-2.26.7-4.64 1.08-7.13 1.08-2.5 0-4.91-.38-7.18-1.1.39-.26.76-.56 1.1-.9.55-.82.91-1.71 1.08-2.63 1.6.41 3.27.63 5 .63 1.7 0 3.35-.21 4.92-.61h.01c.17.91.53 1.79 1.07 2.61z" fill="#fcd770"/></g><g><path d="m46.8 24.55c-3.65-4.02-8.93-6.55-14.8-6.55-5.89 0-11.19 2.55-14.85 6.61-.1-.01-.19-.01-.28-.01-2.52 0-4.87 1.6-5.7 4.12.43-1.29.39-2.62-.02-3.81l.06-.02c.12.38.27.75.46 1.11l2.86-2.03c1.46-1.04 2.3-2.8 2.37-4.64h.02c4.12-3.33 9.37-5.33 15.08-5.33 5.68 0 10.9 1.97 15 5.27h.01c.06 1.86.9 3.65 2.38 4.7l2.86 2.03c.19-.36.34-.73.46-1.11l.05.02c-.41 1.19-.44 2.52-.02 3.81-.83-2.52-3.17-4.12-5.69-4.12-.08 0-.17 0-.25.01z" fill="#fcd770"/></g><g><path d="m32 18c5.87 0 11.15 2.53 14.8 6.55v.06c-.54.02-1.09.11-1.63.29l1.25 3.8c.32.98.87 1.82 1.58 2.49l.01 3.38c-.03 1.09.23 2.12.71 3.01l-1.22 3.06c-.4 1.01-.51 2.06-.37 3.06l-2.19 2.46c-.52.59-.91 1.25-1.16 1.95l-.27.79c-.15-.31-.32-.61-.51-.9l-3 2c-2.49 1.67-3.62 4.62-3.07 7.39h-.01c-1.57.4-3.22.61-4.92.61-1.73 0-3.4-.22-5-.63.54-2.76-.59-5.71-3.08-7.37l-3-2c-.19.29-.36.59-.51.9l-.27-.79c-.26-.7-.64-1.36-1.17-1.95l-2.19-2.46c.15-1 .04-2.05-.36-3.06l-1.22-3.06c.48-.89.74-1.92.7-3.01l.02-3.38c.7-.67 1.26-1.51 1.58-2.49l1.25-3.8c-.54-.18-1.07-.27-1.6-.29 3.66-4.06 8.96-6.61 14.85-6.61z" fill="#ffeaa7"/></g><g><path d="m16.16 16c.56 1.04.8 2.2.74 3.33-.07 1.84-.91 3.6-2.37 4.64l-2.86 2.03c-.19-.36-.34-.73-.46-1.11-.78-2.51.04-5.4 2.1-6.86z" fill="#b4dd7f"/></g><g><path d="m11.15 24.91c.41 1.19.45 2.52.02 3.81l-1.25 3.8c-2.52-.83-4.12-3.18-4.12-5.7 0-.62.09-1.26.3-1.88l1.26-3.8c1.85.61 3.21 2.05 3.79 3.77z" fill="#b4dd7f"/></g><g><path d="m9.92 41.01h.02v-4.01c0-.07 0-.14-.01-.2.05-1.58.7-3 1.75-4.04 1.08-1.09 2.58-1.76 4.24-1.76v.19l-.02 3.38c.04 1.09-.22 2.12-.7 3.01l-.26-.66c-2.35.94-3.78 3.2-3.78 5.59 0 .73.13 1.48.42 2.21-.37-.94-.95-1.73-1.67-2.33l.01-.01z" fill="#b4dd7f"/></g><g><path d="m9.92 41.01c-1.68-.02-3.15-.69-4.22-1.76-1.09-1.09-1.76-2.59-1.76-4.24v-4.01c3.24 0 5.89 2.58 5.99 5.8-.01.06-.01.13-.01.2z" fill="#b4dd7f"/></g><g><path d="m15.82 51.64c-1.31-1.47-3.18-2.14-5-1.98l.02-.8c.74 0 1.49-.14 2.22-.43l-1.48-3.71c-.29-.73-.42-1.48-.42-2.21 0-2.39 1.43-4.65 3.78-5.59l.26.66 1.22 3.06c.4 1.01.51 2.06.36 3.06l-.47-.53c-2.47 2.21-2.69 6-.49 8.47z" fill="#b4dd7f"/></g><g><path d="m11.58 44.72 1.48 3.71c-.73.29-1.48.43-2.22.43-2.39 0-4.64-1.43-5.57-3.78l-1.48-3.72c2.14-.85 4.48-.38 6.12 1.03.72.6 1.3 1.39 1.67 2.33z" fill="#b4dd7f"/></g><g><path d="m15.82 51.64 2.67 2.99c-.57.51-1.22.89-1.89 1.14-.68.25-1.39.38-2.1.38-1.66 0-3.3-.68-4.49-2.01l-2.66-2.98c1.01-.89 2.23-1.39 3.47-1.5 1.82-.16 3.69.51 5 1.98z" fill="#b4dd7f"/></g><g><path d="m20.41 48.9c-1.16 2.42-.85 5.27.7 7.38-.71-.23-1.45-.35-2.19-.35l-2.14.34-.18-.5c.67-.25 1.32-.63 1.89-1.14l-2.67-2.99c-2.2-2.47-1.98-6.26.49-8.47l.47.53 2.19 2.46c.53.59.91 1.25 1.17 1.95z" fill="#b4dd7f"/></g><g><path d="m27 57.37c-.17.92-.53 1.81-1.08 2.63l-1-1-1-1c-.81-.81-1.78-1.39-2.81-1.72-1.55-2.11-1.86-4.96-.7-7.38.15-.31.32-.61.51-.9l3 2c2.49 1.66 3.62 4.61 3.08 7.37z" fill="#b4dd7f"/></g><g><path d="m24.92 59 1 1c-.34.34-.71.64-1.1.9-1.18.78-2.55 1.17-3.9 1.17-1.81 0-3.62-.69-5-2.07l-2-2 2.86-1.73 2.14-.34c.74 0 1.48.12 2.19.35 1.03.33 2 .91 2.81 1.72z" fill="#b4dd7f"/></g><g><path d="m50 58-2 2c-1.38 1.38-3.19 2.07-5 2.07-1.35 0-2.69-.38-3.86-1.15h-.01c-.4-.26-.78-.57-1.13-.92l1-1 1-1c.81-.81 1.78-1.39 2.81-1.72.71-.23 1.45-.35 2.19-.35.72 0 1.45.11 2.14.34 1.05.32 2.03.9 2.86 1.73z" fill="#b4dd7f"/></g><g><path d="m43.51 48.9c1.16 2.42.85 5.27-.7 7.38-1.03.33-2 .91-2.81 1.72l-1 1-1 1c-.54-.82-.9-1.7-1.07-2.61-.55-2.77.58-5.72 3.07-7.39l3-2c.19.29.36.59.51.9z" fill="#b4dd7f"/></g><g><path d="m56.56 51.16-2.66 2.98c-1.18 1.33-2.83 2.01-4.48 2.01l-2.1-.38c-.68-.25-1.32-.63-1.89-1.14l2.66-2.99c1.3-1.45 3.15-2.13 4.95-1.98 1.26.1 2.51.59 3.52 1.5z" fill="#b4dd7f"/></g><g><path d="m45 55.93c-.74 0-1.48.12-2.19.35 1.55-2.11 1.86-4.96.7-7.38l.27-.79c.25-.7.64-1.36 1.16-1.95l2.19-2.46.48-.53c2.47 2.21 2.69 6 .48 8.47l-2.66 2.99c.57.51 1.21.89 1.89 1.14l-.18.5c-.69-.23-1.42-.34-2.14-.34z" fill="#b4dd7f"/></g><g><path d="m50.85 48.43c.73.29 1.48.43 2.22.43l-.03.8c-1.8-.15-3.65.53-4.95 1.98 2.21-2.47 1.99-6.26-.48-8.47l-.48.53c-.14-1-.03-2.05.37-3.06l1.22-3.06.26-.66c2.35.94 3.78 3.19 3.78 5.58 0 .74-.14 1.49-.43 2.22z" fill="#b4dd7f"/></g><g><path d="m60.13 41.36-1.48 3.72c-.94 2.35-3.19 3.78-5.58 3.78-.74 0-1.49-.14-2.22-.43l1.48-3.71c.37-.94.96-1.73 1.68-2.33 1.64-1.41 3.98-1.88 6.12-1.03z" fill="#b4dd7f"/></g><g><path d="m59.98 31v4.01c0 1.65-.67 3.15-1.76 4.24-1.07 1.07-2.55 1.74-4.22 1.76v-4.01c0-.07 0-.14-.01-.2.1-3.22 2.74-5.8 5.99-5.8z" fill="#b4dd7f"/></g><g><path d="m57.81 24.94c.21.63.31 1.26.31 1.89 0 2.51-1.6 4.86-4.12 5.69l-1.26-3.8c-.42-1.29-.39-2.62.02-3.81.58-1.72 1.94-3.16 3.8-3.77z" fill="#b4dd7f"/></g><g><path d="m46.406 28.727c.21.63.508 1.194.886 1.698 1.506 2.008 4.196 2.928 6.71 2.081l-1.272-3.796c-.438-1.284-1.26-2.33-2.302-3.036-1.496-1.028-3.448-1.364-5.302-.737z" fill="#b4dd7f"/></g><g><path d="m17.462 28.727c-.21.63-.508 1.194-.886 1.698-1.506 2.008-4.196 2.928-6.71 2.081l1.272-3.796c.438-1.284 1.26-2.33 2.302-3.036 1.496-1.028 3.448-1.364 5.302-.737z" fill="#b4dd7f"/></g><g><path d="m54 41.01v1.37l.01.01c-.72.6-1.31 1.39-1.68 2.33.29-.73.43-1.48.43-2.22 0-2.39-1.43-4.64-3.78-5.58l-.26.66c-.48-.89-.74-1.92-.71-3.01l-.01-3.38v-.19c1.66 0 3.16.67 4.24 1.76 1.05 1.04 1.7 2.46 1.75 4.04-.01.06-.01.13-.01.2v4.01z" fill="#b4dd7f"/></g><g><path d="m50.61 18.03c2.06 1.46 2.88 4.35 2.1 6.86-.12.38-.27.75-.46 1.11l-2.86-2.03c-1.48-1.05-2.32-2.84-2.38-4.7-.05-1.11.19-2.25.74-3.27z" fill="#b4dd7f"/></g><g><path d="m35 42-1 10h-4l-1-10z" fill="#b27946"/></g><g><path d="m40 38-2 4h-3-6-3l-2-4h8z" fill="#cf9e76"/></g><g><path d="m32 30c0-4 4-4 4-4 0 3 4 4 4 7 0 2-2 5-8 5s-8-3-8-5c0-5 5-6 5-9 0 0 3 0 3 4z" fill="#ff826e"/></g></g><g><path d="m34.905 53 1-10h2.713l3-6h-2.72c1.562-1.28 2.102-2.899 2.102-4 0-1.914-1.218-3.132-2.293-4.207-.916-.916-1.707-1.707-1.707-2.793v-1h-1c-.892 0-2.193.278-3.245 1.089-.682-2.395-2.628-3.089-3.755-3.089h-1v1c0 .845-.655 1.526-1.724 2.568-1.46 1.423-3.276 3.193-3.276 6.432 0 1.101.54 2.72 2.102 4h-2.72l3 6h2.713l1 10zm-9.905-20c0-2.396 1.358-3.719 2.672-5 .851-.83 1.724-1.68 2.115-2.773.56.31 1.213 1.043 1.213 2.773v3h2v-1c0-1.986 1.239-2.66 2.147-2.887.355 1.304 1.295 2.244 2.146 3.094.916.916 1.707 1.707 1.707 2.793 0 1.383-1.463 4-7 4s-7-2.617-7-4zm.618 6h12.764l-1 2h-10.764zm8.277 4-.8 8h-2.19l-.8-8z"/><path d="m32 5c-1.654 0-3 1.346-3 3s1.346 3 3 3 3-1.346 3-3-1.346-3-3-3zm0 4c-.551 0-1-.449-1-1s.449-1 1-1 1 .449 1 1-.449 1-1 1z"/><path d="m60.499 40.432c-.536-.214-1.083-.348-1.63-.423 1.3-1.272 2.11-3.042 2.11-5v-5.009h-1c-.61 0-1.199.086-1.763.234.926-1.655 1.189-3.673.55-5.61l-1.569-4.748-.949.313c-.895.296-1.704.759-2.395 1.358-.328-1.734-1.243-3.325-2.663-4.333l-3.78-2.686-.537.998c-.324.603-.552 1.242-.693 1.896-2.925-2.014-6.254-3.383-9.741-4.014 1.562-1.284 2.561-3.232 2.561-5.408 0-3.86-3.14-7-7-7s-7 3.14-7 7c0 2.176.998 4.123 2.56 5.408-3.517.637-6.871 2.025-9.815 4.067-.14-.672-.37-1.33-.702-1.948l-.537-.998-3.78 2.686c-1.42 1.009-2.335 2.599-2.663 4.333-.691-.6-1.5-1.062-2.394-1.358l-.949-.313-1.569 4.748c-.586 1.775-.446 3.673.394 5.343.046.092.101.177.151.266-.563-.148-1.15-.234-1.758-.234h-1v5.009c0 1.958.81 3.728 2.111 5-.547.076-1.094.21-1.631.423l-.929.37 1.85 4.646c.692 1.737 2.02 3.101 3.737 3.839.062.027.126.045.188.07-.563.277-1.095.627-1.576 1.056l-.746.665 3.327 3.732c1.133 1.271 2.631 2.022 4.196 2.253-.084.078-.173.148-.255.23l-.708.707 2.707 2.707c1.573 1.574 3.64 2.36 5.707 2.36 1.397 0 2.791-.369 4.037-1.088 2.281.669 4.647 1.021 7.047 1.021 2.38 0 4.727-.346 6.991-1.005 1.238.709 2.622 1.072 4.009 1.072 2.067 0 4.134-.787 5.707-2.36l2.707-2.707-.707-.707c-.079-.079-.164-.146-.245-.221 1.617-.24 3.085-1.027 4.186-2.262l3.328-3.732-.747-.666c-.481-.429-1.013-.778-1.576-1.056.062-.025.126-.043.188-.07 1.717-.739 3.044-2.103 3.736-3.839l1.851-4.646zm-43.043-14.799-.91 2.754c-.197.597-.508 1.148-.906 1.626-1.714.067-3.268.751-4.451 1.838l.932-2.821c.419-1.268 1.307-2.297 2.5-2.897.888-.447 1.87-.614 2.835-.5zm-1.811 16.794c-1.219 1.087-2.004 2.531-2.255 4.123l-.878-2.205c-.494-1.241-.476-2.6.052-3.827.394-.915 1.035-1.674 1.85-2.206l1.073 2.695c.164.41.271.839.321 1.273zm-.741-7.823c.013.442-.033.881-.134 1.306l-.204.081c-1.587.632-2.856 1.799-3.628 3.304v-2.295c0-.052-.007-.103-.008-.154.073-2.344 1.755-4.289 3.982-4.745zm.407 12.762c.057-.994.4-1.927.984-2.706l1.93 2.165c.427.479.754 1.025.964 1.605l.151.442c-.615 1.494-.769 3.125-.468 4.688l-2.302-2.582c-.888-.996-1.336-2.279-1.259-3.612zm5.951 2.066 2.1 1.4c2.495 1.664 3.398 4.833 2.309 7.508l-1.047-1.047c-.844-.844-1.829-1.461-2.88-1.853-1.191-1.791-1.358-4.075-.482-6.008zm3.209-.264-3.832-2.555-.059.089c-.244-.429-.528-.835-.862-1.209l-1.907-2.14c.075-1.047-.074-2.104-.465-3.087l-1.061-2.663c.429-.958.65-1.998.619-3.027l.011-2.997c.683-.734 1.214-1.605 1.531-2.566l1.568-4.747-.835-.276c3.485-3.185 8.062-4.99 12.821-4.99 4.746 0 9.315 1.798 12.798 4.971l-.896.296 1.568 4.747c.317.961.848 1.831 1.531 2.566l.01 2.963c-.031 1.058.19 2.102.619 3.061l-1.06 2.662c-.392.982-.541 2.04-.466 3.087l-1.908 2.14c-.333.374-.611.784-.856 1.216l-.064-.096-3.832 2.555c-2.548 1.698-3.834 4.585-3.627 7.441-2.533.513-5.19.508-7.72-.017.203-2.851-1.083-5.729-3.626-7.424zm26.052-2.61c-.243-1.542-.998-3.013-2.251-4.131l-.164-.147c.051-.434.158-.863.322-1.273l1.073-2.694c1.946 1.275 2.796 3.789 1.903 6.032zm-1.511-11.988-.008-2.469c2.228.456 3.91 2.401 3.982 4.745-.001.052-.008.102-.008.154v2.296c-.772-1.506-2.042-2.672-3.628-3.304l-.203-.081c-.101-.431-.148-.88-.135-1.341zm.284-8.436c1.193.601 2.081 1.629 2.5 2.897l.932 2.82c-1.183-1.087-2.737-1.771-4.451-1.838-.398-.479-.709-1.029-.906-1.627l-.91-2.754c.963-.113 1.945.054 2.835.502zm-11.05 32.206c-1.089-2.675-.186-5.844 2.309-7.508l2.1-1.4c.876 1.933.709 4.217-.481 6.008-1.052.391-2.037 1.009-2.881 1.853zm6.798-4.779c.301-1.564.147-3.194-.468-4.689l.145-.424c.217-.598.543-1.144.971-1.623l1.93-2.165c1.392 1.864 1.332 4.517-.275 6.319zm13.935-18.552c0 2.407-1.71 4.42-3.979 4.893v-2.902c0-.052-.007-.102-.008-.154.073-2.345 1.757-4.291 3.986-4.745v2.908zm-3.023-12.513.91 2.754c.757 2.293-.243 4.751-2.261 5.907l-.909-2.752c-.419-1.269-.319-2.624.281-3.817.447-.89 1.133-1.609 1.979-2.092zm-7.754-4.951 1.829 1.3c1.67 1.187 2.354 3.528 1.768 5.609l-1.829-1.3c-1.671-1.186-2.355-3.528-1.768-5.609zm-21.202-9.545c0-2.757 2.243-5 5-5s5 2.243 5 5-2.243 5-5 5-5-2.243-5-5zm19.055 11.809c.144 1.402.67 2.743 1.531 3.81-.1-.008-.2-.006-.3-.01-3.96-4.202-9.506-6.609-15.286-6.609-5.782 0-11.323 2.406-15.283 6.608-.129.003-.258.002-.386.012.847-1.05 1.371-2.364 1.525-3.741 4.022-3.142 9.025-4.879 14.144-4.879 5.153 0 10 1.669 14.055 4.809zm-32.17-.964 1.829-1.3c.587 2.081-.097 4.423-1.767 5.609l-1.829 1.3c-.587-2.08.097-4.422 1.767-5.609zm-6.834 6.405.91-2.754c.846.482 1.532 1.202 1.979 2.092.601 1.193.7 2.548.281 3.816l-.91 2.754c-.846-.482-1.531-1.202-1.979-2.092-.6-1.192-.7-2.547-.281-3.816zm-2.113 9.759v-2.909c2.23.454 3.913 2.401 3.986 4.745-.001.053-.007.103-.007.155v2.902c-2.269-.473-3.979-2.486-3.979-4.893zm1.259 9.699-1.073-2.694c2.289-.412 4.636.829 5.529 3.072l1.073 2.694c-.957.174-1.945.063-2.86-.33-1.227-.528-2.175-1.502-2.669-2.742zm2.634 6.606c.84-.492 1.808-.721 2.801-.669 1.333.077 2.557.667 3.446 1.665l1.93 2.165c-.84.491-1.807.729-2.801.668-1.333-.076-2.557-.667-3.446-1.665zm7.793 7.979-1.234-1.235c2.369-1.692 5.693-1.478 7.82.649l1.234 1.235c-2.371 1.694-5.694 1.476-7.82-.649zm10.208 1.121c.379-.594.67-1.219.88-1.861 1.406.292 2.842.447 4.288.447 1.419 0 2.829-.149 4.21-.43.211.642.503 1.267.884 1.86-3.362.756-6.904.751-10.262-.016zm20.461-1.121c-2.126 2.126-5.451 2.343-7.82.649l1.234-1.235c2.126-2.126 5.45-2.342 7.82-.649zm5.862-5.814c-.889.997-2.112 1.588-3.445 1.665-.997.061-1.96-.177-2.801-.668l1.93-2.165c.889-.997 2.112-1.588 3.445-1.665.998-.056 1.96.177 2.801.669zm4.564-8.771c-.494 1.241-1.442 2.215-2.668 2.743-.915.393-1.905.504-2.861.33l1.073-2.694c.893-2.243 3.24-3.484 5.529-3.072z"/></g></g></svg>