<svg id="Layer_1" enable-background="new 0 0 512 512" height="512" viewBox="0 0 512 512" width="512" xmlns="http://www.w3.org/2000/svg"><path d="m388.936 442.918c-.892-2.284-2.078-4.494-3.573-6.574-.979-1.365-1.993-2.776-14.367-10.161-5.939-3.546-15.44-8.973-26.977-14.695-23.121-11.47-42.576-18.342-58.02-20.508v-44.98c16.542 0 30-13.458 30-30v-10h35.001c16.543 0 30-13.458 30-30 0-7.425-2.717-14.224-7.202-19.468 0 0 30.548-49.61 30.8-50.449 2.585-8.619 1.012-17.669-4.317-24.832-5.339-7.175-13.785-11.459-22.593-11.459-3.81 0-7.562.78-11.152 2.319l-10.026 4.297c4.983-14.945 10.357-32.115 14.789-48.778 1.41-5.33-1.77-10.82-7.1-12.24-.851-.22-1.71-.34-2.58-.34-4.521 0-8.49 3.06-9.65 7.44-5.909 22.22-13.609 45.5-19.029 61.12-2.46 7.071-7.851 22.39-8.03 22.39h-137.82c-4.38-12-12.87-35.39-20.59-60.87-4.67-15.38-8.35-29.14-10.93-40.9-2.97-13.39-4.6-24.97-4.57-32.62 0-1.29.04-2.46.11-3.47.739-10.94 7.069-23.56 16.529-32.95 9.53-9.58 21.45-15.24 31.921-15.19h112.96c7.359 0 15.55 2.81 23.06 7.91 7.52 5.08 14.18 12.28 18.77 20.27 1.78 3.09 5.101 5.01 8.671 5.01 1.75 0 3.47-.46 4.989-1.34 2.311-1.33 3.971-3.49 4.66-6.06.69-2.58.34-5.28-.99-7.59-6.17-10.7-14.77-19.98-24.869-26.84-10.951-7.42-22.841-11.34-34.371-11.36h-112.88c-16.14.07-32.49 7.55-46.06 21.05-6.3 6.33-11.439 13.39-15.25 20.97-4.05 8.05-6.43 16.33-7.08 24.63-.12 1.55-.17 3.17-.17 4.96.021 10.79 2.05 24.41 6.38 42.84 4.883 20.599 11.789 43.019 18.101 61.954l-10.016-4.293c-3.591-1.539-7.343-2.319-11.152-2.319-8.808 0-17.254 4.284-22.593 11.459-5.329 7.162-6.902 16.213-4.317 24.832.252.839 30.8 50.449 30.8 50.449-4.485 5.244-7.203 12.043-7.203 19.469 0 16.542 13.458 29.999 30 29.999h35v10c0 16.542 13.458 30 30 30v44.854c-16.936 2.019-37.062 8.953-60.005 20.69-13.888 7.104-36.125 20.299-39.354 24.797-1.495 2.08-2.668 4.292-3.56 6.574-15.496 3.6-27.081 17.51-27.081 34.085 0 19.299 15.701 35 35 35 18.327 0 33.398-14.162 34.871-32.115 3.024-1.725 5.756-3.973 8.044-6.675 9.481-5.365 36.294-18.904 52.085-21.952v7.736c-3.172 5.264-5 11.425-5 18.006 0 19.299 15.701 35 35 35s35-15.701 35-35c0-6.581-1.828-12.742-5-18.006v-7.736c15.79 3.048 42.599 16.585 52.083 21.95 2.282 2.698 5.021 4.927 8.043 6.65 1.461 17.966 16.538 32.142 34.874 32.142 19.299 0 35-15.701 35-35 0-16.569-11.577-30.476-27.064-34.082zm-42.752-234.945c0-3.268 1.94-6.211 4.944-7.498l23.287-9.98c1.087-.466 2.188-.702 3.273-.702 2.517 0 4.964 1.271 6.547 3.398.968 1.3 1.938 3.361 1.459 6.087l-29.214 47.232c-1.778-.33-3.607-.51-5.479-.51h-11.223s6.406-37.458 6.406-38.027zm-55.184 18.027h31.929l-3.446 20h-28.483zm-50 0h30v20h-30zm-20 0v20h-28.482l-3.446-20zm-94.693-26.723c-.479-2.726.491-4.787 1.459-6.087 1.583-2.127 4.03-3.398 6.547-3.398 1.085 0 2.187.236 3.273.702l23.287 9.98c3.004 1.287 4.944 4.23 4.944 7.498 0 .569 6.406 38.027 6.406 38.027h-11.223c-1.872 0-3.701.181-5.479.51zm34.693 86.723c-5.514 0-10-4.486-10-10s4.486-10 10-10h190.001c5.514 0 9.999 4.486 9.999 10.001 0 5.514-4.485 9.999-9.999 9.999zm55 30v-10h80v10c0 5.514-4.486 10-10 10h-60c-5.514 0-10-4.487-10-10zm50 30v20h-20v-20zm-135 146c-8.271 0-15-6.729-15-15s6.729-15 15-15 15 6.729 15 15-6.729 15-15 15zm125 0c-8.271 0-15-6.729-15-15s6.729-15 15-15 15 6.729 15 15-6.729 15-15 15zm95.547-33.872c-1.204-1.077-19.883-10.856-27.123-14.181-19.49-8.952-33.871-13.305-43.966-13.305-2.548 0-4.908.283-7.015.84-4.388 1.161-7.443 5.13-7.443 9.668v2.313c-3.171-.947-6.526-1.463-10-1.463s-6.829.516-10 1.463v-2.313c0-4.538-3.056-8.507-7.442-9.668-2.107-.557-4.468-.84-7.015-.84-10.096 0-24.477 4.353-43.967 13.305-7.24 3.325-25.925 13.107-27.124 14.18-3.378-5.253-8.118-9.545-13.721-12.378 15.682-10.498 59.334-35.516 89.268-35.516 5.522 0 10-4.478 10-10v-14.233h20v14.233c0 5.522 4.478 10 10 10 26.477 0 72.479 25.352 88.995 35.656-5.483 2.834-10.125 7.072-13.447 12.239zm29.453 33.872c-8.271 0-15-6.729-15-15s6.729-15 15-15 15 6.729 15 15-6.729 15-15 15z"/><path d="m274.228 116.886c13.474-7.931 21.159-22.762 20.059-38.709-1.36-19.69-16.771-36.006-35.846-37.952-21.543-2.208-40.72 13.291-43.674 35.261-.251 1.869-.378 3.777-.378 5.673 0 5.523 4.478 10 10 10s10-4.477 10-10c0-1.009.067-2.023.2-3.011 1.506-11.203 11.102-19.118 21.822-18.026 9.519.971 17.224 9.326 17.922 19.434.576 8.334-3.353 16.034-10.25 20.094-12.148 7.15-19.694 20.32-19.694 34.369 0 5.523 4.478 10 10 10s10-4.477 10-10c0-6.996 3.77-13.56 9.839-17.133z"/><circle cx="254.32" cy="174" r="10"/><circle cx="370.18" cy="83.81" r="10"/></svg>